<svg width="32" height="32" viewBox="0 0 32 32" fill="none" xmlns="http://www.w3.org/2000/svg">
  <!-- Sol -->
  <circle cx="20" cy="12" r="6" fill="#FFD700" stroke="#FFA500" stroke-width="1"/>
  
  <!-- Rayos del sol -->
  <line x1="20" y1="3" x2="20" y2="5" stroke="#FFA500" stroke-width="1.5" stroke-linecap="round"/>
  <line x1="27" y1="12" x2="29" y2="12" stroke="#FFA500" stroke-width="1.5" stroke-linecap="round"/>
  <line x1="25.12" y1="6.88" x2="26.54" y2="5.46" stroke="#FFA500" stroke-width="1.5" stroke-linecap="round"/>
  <line x1="25.12" y1="17.12" x2="26.54" y2="18.54" stroke="#FFA500" stroke-width="1.5" stroke-linecap="round"/>
  
  <!-- Nube -->
  <path d="M8 18C5.79 18 4 19.79 4 22C4 24.21 5.79 26 8 26H20C22.76 26 25 23.76 25 21C25 18.24 22.76 16 20 16C19.65 16 19.32 16.05 19 16.14C18.38 14.31 16.83 13 15 13C12.79 13 11 14.79 11 17C9.34 17 8 18.34 8 20V18Z" fill="#E6F3FF" stroke="#87CEEB" stroke-width="1"/>
</svg>